<svg xmlns="http://www.w3.org/2000/svg" xmlns:xlink="http://www.w3.org/1999/xlink" version="1.1" width="256" height="256" viewBox="0 0 256 256" xml:space="preserve">

<defs>
</defs>
<g style="stroke: none; stroke-width: 0; stroke-dasharray: none; stroke-linecap: butt; stroke-linejoin: miter; stroke-miterlimit: 10; fill: none; fill-rule: nonzero; opacity: 1;" transform="translate(1.4065934065934016 1.4065934065934016) scale(2.81 2.81)" >
	<path d="M 64.967 0 H 25.033 c -3.363 0 -6.099 2.736 -6.099 6.098 v 77.803 c 0 3.362 2.736 6.099 6.099 6.099 h 39.934 c 3.363 0 6.099 -2.736 6.099 -6.099 V 6.098 C 71.065 2.736 68.33 0 64.967 0 z M 20.935 12.417 h 48.131 v 59.67 H 20.935 V 12.417 z M 25.033 2 h 39.934 c 2.26 0 4.099 1.838 4.099 4.098 v 4.319 H 20.935 V 6.098 C 20.935 3.838 22.773 2 25.033 2 z M 64.967 88 H 25.033 c -2.26 0 -4.099 -1.839 -4.099 -4.099 v -9.814 h 48.131 v 9.814 C 69.065 86.161 67.227 88 64.967 88 z" style="stroke: none; stroke-width: 1; stroke-dasharray: none; stroke-linecap: butt; stroke-linejoin: miter; stroke-miterlimit: 10; fill: rgb(0,0,0); fill-rule: nonzero; opacity: 1;" transform=" matrix(1 0 0 1 0 0) " stroke-linecap="round" />
	<path d="M 45 85.543 c -2.481 0 -4.5 -2.019 -4.5 -4.5 s 2.019 -4.5 4.5 -4.5 s 4.5 2.019 4.5 4.5 S 47.481 85.543 45 85.543 z M 45 78.543 c -1.378 0 -2.5 1.121 -2.5 2.5 s 1.122 2.5 2.5 2.5 c 1.379 0 2.5 -1.121 2.5 -2.5 S 46.379 78.543 45 78.543 z" style="stroke: none; stroke-width: 1; stroke-dasharray: none; stroke-linecap: butt; stroke-linejoin: miter; stroke-miterlimit: 10; fill: rgb(0,0,0); fill-rule: nonzero; opacity: 1;" transform=" matrix(1 0 0 1 0 0) " stroke-linecap="round" />
	<path d="M 50.527 7.254 H 39.473 c -0.552 0 -1 -0.448 -1 -1 s 0.448 -1 1 -1 h 11.055 c 0.553 0 1 0.448 1 1 S 51.08 7.254 50.527 7.254 z" style="stroke: none; stroke-width: 1; stroke-dasharray: none; stroke-linecap: butt; stroke-linejoin: miter; stroke-miterlimit: 10; fill: rgb(0,0,0); fill-rule: nonzero; opacity: 1;" transform=" matrix(1 0 0 1 0 0) " stroke-linecap="round" />
	<path d="M 39.254 58.586 c -3.651 0 -7.206 -1.042 -10.28 -3.013 c -0.392 -0.251 -0.559 -0.74 -0.402 -1.179 s 0.598 -0.71 1.059 -0.656 c 0.457 0.054 0.927 0.081 1.399 0.081 c 1.866 0 3.658 -0.425 5.283 -1.241 c -2 -0.798 -3.596 -2.453 -4.28 -4.588 c -0.108 -0.336 -0.03 -0.704 0.204 -0.968 c 0.029 -0.033 0.06 -0.063 0.092 -0.092 c -1.585 -1.363 -2.572 -3.382 -2.572 -5.583 c 0 -0.018 0.002 -0.117 0.003 -0.136 c 0.019 -0.344 0.213 -0.654 0.515 -0.821 c 0.13 -0.072 0.271 -0.112 0.415 -0.122 c -0.57 -1.057 -0.881 -2.254 -0.881 -3.497 c 0 -1.299 0.344 -2.578 0.996 -3.697 c 0.165 -0.284 0.459 -0.468 0.786 -0.494 c 0.328 -0.024 0.646 0.111 0.853 0.365 c 2.795 3.429 6.813 5.635 11.166 6.168 c -0.005 -0.115 -0.008 -0.23 -0.008 -0.346 c 0 -4.055 3.3 -7.354 7.355 -7.354 c 1.83 0 3.604 0.692 4.952 1.915 c 1.128 -0.274 2.206 -0.714 3.211 -1.31 c 0.355 -0.212 0.807 -0.182 1.133 0.078 c 0.325 0.259 0.456 0.691 0.329 1.087 c -0.147 0.463 -0.341 0.908 -0.575 1.328 c 0.024 -0.01 0.049 -0.021 0.072 -0.032 c 0.408 -0.18 0.885 -0.071 1.171 0.27 c 0.287 0.34 0.314 0.83 0.067 1.2 c -0.821 1.23 -1.824 2.313 -2.987 3.223 c 0.002 0.111 0.003 0.222 0.003 0.334 C 58.334 48.885 51.197 58.586 39.254 58.586 z M 33.528 55.597 c 1.828 0.652 3.761 0.989 5.726 0.989 c 10.691 0 17.08 -8.685 17.08 -17.08 c 0 -0.26 -0.005 -0.518 -0.017 -0.775 c -0.016 -0.337 0.14 -0.659 0.413 -0.856 c 0.243 -0.176 0.479 -0.361 0.707 -0.553 c -0.16 0.025 -0.32 0.047 -0.481 0.066 c -0.461 0.056 -0.912 -0.222 -1.065 -0.669 c -0.152 -0.446 0.027 -0.938 0.432 -1.181 c 0.204 -0.122 0.397 -0.256 0.581 -0.402 c -0.366 0.104 -0.737 0.194 -1.113 0.268 c -0.338 0.065 -0.687 -0.045 -0.922 -0.296 c -1.011 -1.076 -2.436 -1.692 -3.91 -1.692 c -2.953 0 -5.355 2.402 -5.355 5.354 c 0 0.419 0.046 0.83 0.139 1.22 c 0.072 0.306 -0.004 0.628 -0.206 0.87 c -0.201 0.241 -0.504 0.369 -0.818 0.358 c -4.831 -0.243 -9.39 -2.33 -12.738 -5.785 c -0.113 0.436 -0.17 0.887 -0.17 1.341 c 0 1.795 0.891 3.461 2.383 4.458 c 0.371 0.248 0.533 0.711 0.397 1.136 c -0.136 0.425 -0.524 0.725 -0.983 0.695 c -0.552 -0.017 -1.103 -0.098 -1.637 -0.238 c 0.545 1.89 2.097 3.376 4.083 3.774 c 0.455 0.091 0.787 0.483 0.803 0.946 c 0.016 0.464 -0.289 0.877 -0.736 0.999 c -0.486 0.133 -0.985 0.215 -1.489 0.245 c 0.962 1.395 2.554 2.28 4.312 2.313 c 0.423 0.008 0.795 0.281 0.93 0.683 s 0.001 0.844 -0.332 1.104 C 37.756 54.283 35.711 55.201 33.528 55.597 z" style="stroke: none; stroke-width: 1; stroke-dasharray: none; stroke-linecap: butt; stroke-linejoin: miter; stroke-miterlimit: 10; fill: rgb(0,0,0); fill-rule: nonzero; opacity: 1;" transform=" matrix(1 0 0 1 0 0) " stroke-linecap="round" />
</g>
</svg>